HIERARCHY
ROOT Hips
{
	OFFSET	0.000000	0.000000	0.000000
	CHANNELS 6 Xposition Yposition Zposition Zrotation Xrotation Yrotation
	JOINT LeftUpLeg
	{
		OFFSET	12.811937	-7.635976	0.557276
		CHANNELS 3 Zrotation Xrotation Yrotation
		JOINT LeftLeg
		{
			OFFSET	-0.429270	-42.206159	-1.204951
			CHANNELS 3 Zrotation Xrotation Yrotation
			JOINT LeftFoot
			{
				OFFSET	-2.112259	-42.464481	-3.973220
				CHANNELS 3 Zrotation Xrotation Yrotation
				JOINT LeftFootHeel
				{
					OFFSET	0.387196	-5.329707	-3.419729
					CHANNELS 3 Zrotation Xrotation Yrotation
					End Site
					{
						OFFSET	0.327567	-0.000003	16.505428
					}
				}
			}
		}
	}
	JOINT RightUpLeg
	{
		OFFSET	-12.811937	-7.635976	0.557276
		CHANNELS 3 Zrotation Xrotation Yrotation
		JOINT RightLeg
		{
			OFFSET	0.429270	-42.206159	-1.204951
			CHANNELS 3 Zrotation Xrotation Yrotation
			JOINT RightFoot
			{
				OFFSET	2.112259	-42.464481	-3.973220
				CHANNELS 3 Zrotation Xrotation Yrotation
				JOINT RightFootHeel
				{
					OFFSET	-0.387198	-5.329707	-3.419729
					CHANNELS 3 Zrotation Xrotation Yrotation
					End Site
					{
						OFFSET	-0.327566	-0.000003	16.505428
					}
				}
			}
		}
	}
	JOINT Spine
	{
		OFFSET	0.000000	13.731315	-1.007646
		CHANNELS 3 Zrotation Xrotation Yrotation
		JOINT Spine1
		{
			OFFSET	0.000000	12.091746	-0.604589
			CHANNELS 3 Zrotation Xrotation Yrotation
			JOINT LeftShoulder
			{
				OFFSET	5.746115	20.990027	-0.833816
				CHANNELS 3 Zrotation Xrotation Yrotation
				JOINT LeftArm
				{
					OFFSET	10.881538	-1.359258	0.219250
					CHANNELS 3 Zrotation Xrotation Yrotation
					JOINT LeftForeArm
					{
						OFFSET	4.390314	-31.537147	0.202818
						CHANNELS 3 Zrotation Xrotation Yrotation
						JOINT LeftHand
						{
							OFFSET	3.168650	-24.865023	5.373370
							CHANNELS 3 Zrotation Xrotation Yrotation
							End Site
							{
								OFFSET	1.457528	-10.806075	2.170267
							}
						}
					}
				}
			}
			JOINT RightShoulder
			{
				OFFSET	-5.746115	20.990027	-0.833816
				CHANNELS 3 Zrotation Xrotation Yrotation
				JOINT RightArm
				{
					OFFSET	-10.881538	-1.359258	0.219250
					CHANNELS 3 Zrotation Xrotation Yrotation
					JOINT RightForeArm
					{
						OFFSET	-4.390314	-31.537147	0.202818
						CHANNELS 3 Zrotation Xrotation Yrotation
						JOINT RightHand
						{
							OFFSET	-3.168650	-24.865023	5.373370
							CHANNELS 3 Zrotation Xrotation Yrotation
							End Site
							{
								OFFSET	-1.457528	-10.806075	2.170267
							}
						}
					}
				}
			}
			JOINT Neck
			{
				OFFSET	0.000000	27.075639	0.680489
				CHANNELS 3 Zrotation Xrotation Yrotation
				JOINT Head
				{
					OFFSET	0.000000	12.391287	1.239129
					CHANNELS 3 Zrotation Xrotation Yrotation
					End Site
					{
						OFFSET	0.000000	13.818691	-0.105853
					}
				}
			}
		}
	}
}
MOTION
Frames:    6
Frame Time: 0.016667
0.000000	100.868783	0.000000	-1.729657	-2.279122	7.595295	2.269722	0.234333	-7.611791	0.189900	1.800107	1.247136	-0.854094	1.043686	-2.437337	0.	0.	0.	1.585548	2.018632	-4.117874	0.380628	0.829845	-1.993495	-0.329932	-1.846768	-1.070843	0.	0.	0.	-0.000001	-0.000000	-0.000001	0.912743	4.252851	-6.789928	0.292811	0.647113	-3.695532	2.477905	-3.796842	-3.662895	1.688194	-1.519736	-5.760175	10.673785	-3.888553	-19.461409	-0.023223	1.883723	-0.654244	0.020443	-6.312982	-1.632807	0.278302	-1.970918	13.724197	-10.710790	-0.824635	23.322710	-0.219138	-1.285396	-3.110771	1.991041	0.847747	-0.839195	
0.000000	100.868783	0.000000	-1.729657	-2.279122	7.595295	2.269722	0.234333	-7.611791	0.189900	1.800107	1.247136	-0.854094	1.043686	-2.437337	0.	0.	0.	1.584752	2.019890	-4.127664	0.381370	0.828714	-1.983665	-0.329932	-1.846769	-1.070844	0.	0.	0.	-0.000001	-0.000000	-0.000001	0.912743	4.252851	-6.789928	0.292811	0.647113	-3.695532	2.477905	-3.796842	-3.662895	1.688194	-1.519736	-5.760175	10.673785	-3.888553	-19.461409	-0.023223	1.883723	-0.654244	0.014027	-6.298394	-1.637475	0.275679	-1.975171	13.725840	-10.699117	-0.814672	23.302574	-0.216526	-1.269819	-3.124868	1.974841	0.863153	-0.808421	
0.000000	100.868783	0.000000	-1.729657	-2.279122	7.595295	2.269722	0.234333	-7.611791	0.189900	1.800107	1.247136	-0.854094	1.043686	-2.437337	0.	0.	0.	1.583159	2.022397	-4.147210	0.382855	0.826458	-1.964049	-0.329932	-1.846769	-1.070843	0.	0.	0.	-0.000001	-0.000000	-0.000001	0.912743	4.252851	-6.789928	0.284358	0.662029	-3.689322	2.486930	-3.811298	-3.676658	1.688426	-1.519627	-5.751906	10.676095	-3.885958	-19.472996	-0.023223	1.883723	-0.654244	0.001722	-6.270392	-1.646429	0.270063	-1.982710	13.728849	-10.673177	-0.792244	23.253002	-0.208507	-1.223652	-3.165458	1.944094	0.871216	-0.741112	
0.000066	100.868842	0.000357	-1.730217	-2.275725	7.594854	2.269826	0.230911	-7.611237	0.189900	1.800108	1.247136	-0.854094	1.043687	-2.437337	0.	0.	0.	1.583248	2.018968	-4.146696	0.382855	0.826459	-1.964049	-0.329932	-1.846769	-1.070842	0.	0.	0.	-0.000000	-0.000001	0.000000	0.912814	4.249418	-6.789454	0.266973	0.689765	-3.679132	2.505460	-3.837965	-3.704199	1.691701	-1.519544	-5.740196	10.682941	-3.875042	-19.510710	-0.026078	1.886765	-0.658829	-0.006124	-6.247799	-1.649892	0.268713	-1.993632	13.732546	-10.650643	-0.778493	23.204979	-0.206392	-1.209728	-3.179427	1.922023	0.901803	-0.705784	
0.000561	100.869345	0.002942	-1.734261	-2.251271	7.591761	2.270585	0.206273	-7.607319	0.189900	1.800108	1.247136	-0.854094	1.043687	-2.437336	0.	0.	0.	1.579690	1.994059	-4.148221	0.383131	0.827156	-1.983654	-0.325304	-1.846911	-1.045877	0.	0.	0.	-0.000001	-0.000000	0.000001	0.900459	4.227384	-6.792125	0.250685	0.718349	-3.670078	2.536658	-3.865529	-3.772565	1.720711	-1.519998	-5.741283	10.680320	-3.841779	-19.539576	-0.032414	1.906075	-0.682648	0.002732	-6.235202	-1.634899	0.274431	-2.014117	13.733215	-10.649278	-0.784394	23.170256	-0.188199	-1.172291	-3.216104	1.888023	0.929916	-0.629540	
0.000561	100.869345	0.002942	-1.734261	-2.251271	7.591761	2.270585	0.206273	-7.607319	0.189900	1.800108	1.247136	-0.854094	1.043687	-2.437336	0.	0.	0.	1.579690	1.994059	-4.148221	0.383131	0.827156	-1.983654	-0.325304	-1.846911	-1.045877	0.	0.	0.	-0.000001	-0.000000	0.000001	0.900459	4.227384	-6.792125	0.250685	0.718349	-3.670078	2.536658	-3.865529	-3.772565	1.720711	-1.519998	-5.741283	10.680320	-3.841779	-19.539576	-0.032414	1.906075	-0.682648	0.002732	-6.235202	-1.634899	0.274431	-2.014117	13.733215	-10.649278	-0.784394	23.170256	-0.188199	-1.172291	-3.216104	1.888023	0.929916	-0.629540	
